# xmcd
#
# Track frame offsets:
#	150
#	15406
#	29173
#	45081
#	62101
#	82560
#	110672
#	122521
#	141415
#	152850
#	163183
#	177675
#	202793
#
# Disc length: 2855 seconds
#
# Revision: 0
# Processed by: cddbd v1.4PL0 Copyright (c) Steve Scherf et al.
# Submitted via: dBpowerAMP V4.0
#
DISCID=a70b250d
DTITLE=Duke Barrix - Country Classic Song Collection
DYEAR=1900
DGENRE=Country
TTITLE0=Green Green Grass of Home
TTITLE1=Loving A Living Dream
TTITLE2=Room Full Of Roses
TTITLE3=Crazy ARms
TTITLE4=You Gave Me A Mountain
TTITLE5=For The Good Times
TTITLE6=Wandering Eyes
TTITLE7=Polk Salad Annie
TTITLE8=I Could't Love Again
TTITLE9=Some Of The Things
TTITLE10=Right Before Her Eyes
TTITLE11=A Woman Like You
TTITLE12=Open Letter
EXTD=Country Classic Song Collection-Duke Barrix
EXTT0=
EXTT1=
EXTT2=
EXTT3=
EXTT4=
EXTT5=
EXTT6=
EXTT7=
EXTT8=
EXTT9=
EXTT10=
EXTT11=
EXTT12=
PLAYORDER=
